<mxfile host="app.diagrams.net" agent="Mozilla/5.0 (Windows NT 10.0; Win64; x64; rv:131.0) Gecko/20100101 Firefox/131.0" version="24.8.2">
  <diagram name="Страница — 1" id="M_jzQXmH7S2AjxUuForW">
    <mxGraphModel dx="2049" dy="2319" grid="1" gridSize="10" guides="1" tooltips="1" connect="1" arrows="1" fold="1" page="1" pageScale="1" pageWidth="827" pageHeight="1169" math="0" shadow="0">
      <root>
        <mxCell id="0" />
        <mxCell id="1" parent="0" />
        <mxCell id="6JviFvfy_6Wq0vs0kvGb-93" style="edgeStyle=orthogonalEdgeStyle;rounded=0;orthogonalLoop=1;jettySize=auto;html=1;exitX=1;exitY=0.5;exitDx=0;exitDy=0;entryX=0;entryY=0.5;entryDx=0;entryDy=0;" edge="1" parent="1" source="6JviFvfy_6Wq0vs0kvGb-1">
          <mxGeometry relative="1" as="geometry">
            <mxPoint x="460" y="280" as="targetPoint" />
          </mxGeometry>
        </mxCell>
        <mxCell id="6JviFvfy_6Wq0vs0kvGb-1" value="" style="ellipse;whiteSpace=wrap;html=1;aspect=fixed;" vertex="1" parent="1">
          <mxGeometry x="60" y="255" width="50" height="50" as="geometry" />
        </mxCell>
        <mxCell id="6JviFvfy_6Wq0vs0kvGb-104" style="edgeStyle=orthogonalEdgeStyle;rounded=0;orthogonalLoop=1;jettySize=auto;html=1;exitX=0.5;exitY=1;exitDx=0;exitDy=0;entryX=0;entryY=0.5;entryDx=0;entryDy=0;" edge="1" parent="1" source="6JviFvfy_6Wq0vs0kvGb-6">
          <mxGeometry relative="1" as="geometry">
            <mxPoint x="960" y="920" as="targetPoint" />
            <Array as="points">
              <mxPoint x="765" y="120" />
              <mxPoint x="30" y="120" />
              <mxPoint x="30" y="920" />
            </Array>
          </mxGeometry>
        </mxCell>
        <mxCell id="6JviFvfy_6Wq0vs0kvGb-6" value="Заказ отменён" style="swimlane;" vertex="1" parent="1">
          <mxGeometry x="690" y="40" width="150" height="50" as="geometry" />
        </mxCell>
        <mxCell id="6JviFvfy_6Wq0vs0kvGb-14" style="edgeStyle=orthogonalEdgeStyle;rounded=0;orthogonalLoop=1;jettySize=auto;html=1;exitX=0.5;exitY=0;exitDx=0;exitDy=0;entryX=1;entryY=0.5;entryDx=0;entryDy=0;" edge="1" parent="1" target="6JviFvfy_6Wq0vs0kvGb-6">
          <mxGeometry relative="1" as="geometry">
            <mxPoint x="1060" y="260" as="sourcePoint" />
          </mxGeometry>
        </mxCell>
        <mxCell id="6JviFvfy_6Wq0vs0kvGb-36" style="edgeStyle=orthogonalEdgeStyle;rounded=0;orthogonalLoop=1;jettySize=auto;html=1;exitX=1;exitY=0.5;exitDx=0;exitDy=0;entryX=0.5;entryY=1;entryDx=0;entryDy=0;" edge="1" parent="1" target="6JviFvfy_6Wq0vs0kvGb-22">
          <mxGeometry relative="1" as="geometry">
            <mxPoint x="1545" y="490" as="sourcePoint" />
          </mxGeometry>
        </mxCell>
        <mxCell id="6JviFvfy_6Wq0vs0kvGb-37" style="edgeStyle=orthogonalEdgeStyle;rounded=0;orthogonalLoop=1;jettySize=auto;html=1;exitX=0.5;exitY=0;exitDx=0;exitDy=0;entryX=1;entryY=0.25;entryDx=0;entryDy=0;" edge="1" parent="1" source="6JviFvfy_6Wq0vs0kvGb-22" target="6JviFvfy_6Wq0vs0kvGb-6">
          <mxGeometry relative="1" as="geometry" />
        </mxCell>
        <mxCell id="6JviFvfy_6Wq0vs0kvGb-22" value="Заказ не доставлен" style="swimlane;" vertex="1" parent="1">
          <mxGeometry x="1600" y="75" width="340" height="90" as="geometry" />
        </mxCell>
        <mxCell id="6JviFvfy_6Wq0vs0kvGb-102" value="entry : Уведомить клиента что заказ не доставлен&lt;br&gt;по определенной причине&lt;br&gt;&lt;br&gt;exit : Отменить заказ" style="text;html=1;align=center;verticalAlign=middle;whiteSpace=wrap;rounded=0;" vertex="1" parent="6JviFvfy_6Wq0vs0kvGb-22">
          <mxGeometry x="20" y="37.5" width="300" height="35" as="geometry" />
        </mxCell>
        <mxCell id="6JviFvfy_6Wq0vs0kvGb-47" style="edgeStyle=orthogonalEdgeStyle;rounded=0;orthogonalLoop=1;jettySize=auto;html=1;exitX=1;exitY=0.25;exitDx=0;exitDy=0;entryX=0;entryY=0.5;entryDx=0;entryDy=0;" edge="1" parent="1" target="6JviFvfy_6Wq0vs0kvGb-6">
          <mxGeometry relative="1" as="geometry">
            <mxPoint x="610" y="265" as="sourcePoint" />
          </mxGeometry>
        </mxCell>
        <mxCell id="6JviFvfy_6Wq0vs0kvGb-79" value="" style="endArrow=none;dashed=1;html=1;rounded=0;" edge="1" parent="1" target="6JviFvfy_6Wq0vs0kvGb-80">
          <mxGeometry width="50" height="50" relative="1" as="geometry">
            <mxPoint x="650" y="70" as="sourcePoint" />
            <mxPoint x="590" y="5" as="targetPoint" />
          </mxGeometry>
        </mxCell>
        <mxCell id="6JviFvfy_6Wq0vs0kvGb-80" value="Триггер: Заказ отклонён клиентом&lt;br&gt;&lt;br&gt;Условие: Товаров нет в наличии" style="shape=note2;boundedLbl=1;whiteSpace=wrap;html=1;size=25;verticalAlign=top;align=center;" vertex="1" parent="1">
          <mxGeometry x="490" y="-60" width="90" height="140" as="geometry" />
        </mxCell>
        <mxCell id="6JviFvfy_6Wq0vs0kvGb-82" value="Триггер: Заказ не принят клиентом&lt;br&gt;&lt;br&gt;Условие: Курьер не передал заказ клиенту" style="shape=note2;boundedLbl=1;whiteSpace=wrap;html=1;size=25;verticalAlign=top;align=center;" vertex="1" parent="1">
          <mxGeometry x="1150" y="-100" width="210" height="110" as="geometry" />
        </mxCell>
        <mxCell id="6JviFvfy_6Wq0vs0kvGb-84" value="" style="endArrow=none;dashed=1;html=1;rounded=0;entryX=-0.003;entryY=0.721;entryDx=0;entryDy=0;entryPerimeter=0;" edge="1" parent="1" target="6JviFvfy_6Wq0vs0kvGb-82">
          <mxGeometry width="50" height="50" relative="1" as="geometry">
            <mxPoint x="1080" y="50" as="sourcePoint" />
            <mxPoint x="1140" y="-10" as="targetPoint" />
          </mxGeometry>
        </mxCell>
        <mxCell id="6JviFvfy_6Wq0vs0kvGb-85" value="Триггер: Заказ отклонён клиентом&lt;br&gt;&lt;br&gt;Условие: Предприятие не смогло собрать заказ" style="shape=note2;boundedLbl=1;whiteSpace=wrap;html=1;size=25;verticalAlign=top;align=center;" vertex="1" parent="1">
          <mxGeometry x="1130" y="75" width="180" height="110" as="geometry" />
        </mxCell>
        <mxCell id="6JviFvfy_6Wq0vs0kvGb-87" value="" style="endArrow=none;dashed=1;html=1;rounded=0;exitX=0.004;exitY=0.724;exitDx=0;exitDy=0;exitPerimeter=0;" edge="1" parent="1" source="6JviFvfy_6Wq0vs0kvGb-85">
          <mxGeometry width="50" height="50" relative="1" as="geometry">
            <mxPoint x="1120" y="150" as="sourcePoint" />
            <mxPoint x="1020" y="50" as="targetPoint" />
          </mxGeometry>
        </mxCell>
        <mxCell id="6JviFvfy_6Wq0vs0kvGb-97" value="Триггер: Курьер по какой то причине не доставил заказ&lt;br&gt;&lt;br&gt;&amp;nbsp;Условие: Клиент не принял заказ" style="shape=note2;boundedLbl=1;whiteSpace=wrap;html=1;size=25;verticalAlign=top;align=center;" vertex="1" parent="1">
          <mxGeometry x="1840" y="420" width="170" height="110" as="geometry" />
        </mxCell>
        <mxCell id="6JviFvfy_6Wq0vs0kvGb-98" value="" style="endArrow=none;dashed=1;html=1;rounded=0;exitX=0;exitY=0;exitDx=0;exitDy=0;exitPerimeter=0;" edge="1" parent="1" source="6JviFvfy_6Wq0vs0kvGb-97">
          <mxGeometry width="50" height="50" relative="1" as="geometry">
            <mxPoint x="1830" y="410" as="sourcePoint" />
            <mxPoint x="1770" y="350" as="targetPoint" />
          </mxGeometry>
        </mxCell>
        <mxCell id="6JviFvfy_6Wq0vs0kvGb-105" value="" style="ellipse;html=1;shape=endState;fillColor=#000000;strokeColor=#ff0000;" vertex="1" parent="1">
          <mxGeometry x="960" y="890" width="60" height="60" as="geometry" />
        </mxCell>
        <mxCell id="6JviFvfy_6Wq0vs0kvGb-107" style="edgeStyle=orthogonalEdgeStyle;rounded=0;orthogonalLoop=1;jettySize=auto;html=1;exitX=0.5;exitY=1;exitDx=0;exitDy=0;entryX=0.5;entryY=1;entryDx=0;entryDy=0;" edge="1" parent="1" source="6JviFvfy_6Wq0vs0kvGb-108" target="6JviFvfy_6Wq0vs0kvGb-111">
          <mxGeometry relative="1" as="geometry" />
        </mxCell>
        <mxCell id="6JviFvfy_6Wq0vs0kvGb-108" value="Заказ принят" style="swimlane;startSize=23;" vertex="1" parent="1">
          <mxGeometry x="690" y="360" width="150" height="110" as="geometry" />
        </mxCell>
        <mxCell id="6JviFvfy_6Wq0vs0kvGb-109" value="entry : Уведомить клиента о принятии заказа&lt;br&gt;&lt;div&gt;exit : Отправить заказ на предприятие&lt;br&gt;&lt;/div&gt;" style="text;html=1;align=center;verticalAlign=middle;whiteSpace=wrap;rounded=0;" vertex="1" parent="6JviFvfy_6Wq0vs0kvGb-108">
          <mxGeometry y="30" width="150" height="80" as="geometry" />
        </mxCell>
        <mxCell id="6JviFvfy_6Wq0vs0kvGb-110" style="edgeStyle=orthogonalEdgeStyle;rounded=0;orthogonalLoop=1;jettySize=auto;html=1;exitX=1;exitY=0.5;exitDx=0;exitDy=0;entryX=0.5;entryY=0;entryDx=0;entryDy=0;" edge="1" parent="1" source="6JviFvfy_6Wq0vs0kvGb-111" target="6JviFvfy_6Wq0vs0kvGb-121">
          <mxGeometry relative="1" as="geometry" />
        </mxCell>
        <mxCell id="6JviFvfy_6Wq0vs0kvGb-111" value="Сборка заказа" style="swimlane;" vertex="1" parent="1">
          <mxGeometry x="900" y="250" width="320" height="100" as="geometry" />
        </mxCell>
        <mxCell id="6JviFvfy_6Wq0vs0kvGb-112" style="edgeStyle=orthogonalEdgeStyle;rounded=0;orthogonalLoop=1;jettySize=auto;html=1;exitX=1;exitY=0.75;exitDx=0;exitDy=0;entryX=0;entryY=0.5;entryDx=0;entryDy=0;" edge="1" parent="1" source="6JviFvfy_6Wq0vs0kvGb-114" target="6JviFvfy_6Wq0vs0kvGb-108">
          <mxGeometry relative="1" as="geometry" />
        </mxCell>
        <mxCell id="6JviFvfy_6Wq0vs0kvGb-113" value="entry : Уведомить клиента об успешной доставке заказа" style="text;html=1;align=center;verticalAlign=middle;resizable=0;points=[];autosize=1;strokeColor=none;fillColor=none;" vertex="1" parent="1">
          <mxGeometry x="940" y="688" width="340" height="30" as="geometry" />
        </mxCell>
        <mxCell id="6JviFvfy_6Wq0vs0kvGb-114" value="Создание заказа" style="swimlane;startSize=23;" vertex="1" parent="1">
          <mxGeometry x="460" y="240" width="150" height="60" as="geometry" />
        </mxCell>
        <mxCell id="6JviFvfy_6Wq0vs0kvGb-115" value="do / Проверка заказа " style="text;html=1;align=center;verticalAlign=middle;whiteSpace=wrap;rounded=0;" vertex="1" parent="6JviFvfy_6Wq0vs0kvGb-114">
          <mxGeometry x="25" y="30" width="100" height="30" as="geometry" />
        </mxCell>
        <mxCell id="6JviFvfy_6Wq0vs0kvGb-116" value="Условие: Все товары в наличии " style="shape=note2;boundedLbl=1;whiteSpace=wrap;html=1;size=25;verticalAlign=top;align=center;" vertex="1" parent="1">
          <mxGeometry x="520" y="400" width="90" height="90" as="geometry" />
        </mxCell>
        <mxCell id="6JviFvfy_6Wq0vs0kvGb-117" value="" style="endArrow=none;dashed=1;html=1;rounded=0;" edge="1" parent="1">
          <mxGeometry width="50" height="50" relative="1" as="geometry">
            <mxPoint x="600" y="410" as="sourcePoint" />
            <mxPoint x="650" y="360" as="targetPoint" />
          </mxGeometry>
        </mxCell>
        <mxCell id="6JviFvfy_6Wq0vs0kvGb-118" value="&lt;div&gt;Условие:Предприятие приняло заказ&lt;/div&gt;" style="shape=note2;boundedLbl=1;whiteSpace=wrap;html=1;size=25;verticalAlign=top;align=center;" vertex="1" parent="1">
          <mxGeometry x="780" y="530" width="140" height="70" as="geometry" />
        </mxCell>
        <mxCell id="6JviFvfy_6Wq0vs0kvGb-119" value="" style="endArrow=none;dashed=1;html=1;rounded=0;exitX=0;exitY=0;exitDx=127.5;exitDy=12.5;exitPerimeter=0;" edge="1" parent="1" source="6JviFvfy_6Wq0vs0kvGb-118">
          <mxGeometry width="50" height="50" relative="1" as="geometry">
            <mxPoint x="920" y="540" as="sourcePoint" />
            <mxPoint x="970" y="490" as="targetPoint" />
          </mxGeometry>
        </mxCell>
        <mxCell id="6JviFvfy_6Wq0vs0kvGb-120" value="entry : Уведомить клиента о том что заказ в сборке&lt;br&gt;exit : Уведомить службу доставки о том что заказ готов" style="text;html=1;align=center;verticalAlign=middle;resizable=0;points=[];autosize=1;strokeColor=none;fillColor=none;" vertex="1" parent="1">
          <mxGeometry x="900" y="285" width="330" height="40" as="geometry" />
        </mxCell>
        <mxCell id="6JviFvfy_6Wq0vs0kvGb-121" value="Отправка заказа" style="swimlane;" vertex="1" parent="1">
          <mxGeometry x="1230" y="430" width="315" height="100" as="geometry" />
        </mxCell>
        <mxCell id="6JviFvfy_6Wq0vs0kvGb-122" value="entry : Уведомить клиента о том что заказ отправлен" style="text;html=1;align=center;verticalAlign=middle;resizable=0;points=[];autosize=1;strokeColor=none;fillColor=none;" vertex="1" parent="6JviFvfy_6Wq0vs0kvGb-121">
          <mxGeometry x="-5" y="50" width="320" height="30" as="geometry" />
        </mxCell>
        <mxCell id="6JviFvfy_6Wq0vs0kvGb-123" value="&amp;nbsp;Триггер: Есть свободные курьеры&lt;br&gt;&lt;br&gt;Условие: Предприятие собрало заказ" style="shape=note2;boundedLbl=1;whiteSpace=wrap;html=1;size=25;verticalAlign=top;align=center;" vertex="1" parent="1">
          <mxGeometry x="1450" y="225" width="170" height="110" as="geometry" />
        </mxCell>
        <mxCell id="6JviFvfy_6Wq0vs0kvGb-124" value="" style="endArrow=none;dashed=1;html=1;rounded=0;entryX=0;entryY=0.909;entryDx=0;entryDy=0;entryPerimeter=0;" edge="1" parent="1" target="6JviFvfy_6Wq0vs0kvGb-123">
          <mxGeometry width="50" height="50" relative="1" as="geometry">
            <mxPoint x="1390" y="375" as="sourcePoint" />
            <mxPoint x="1440" y="325" as="targetPoint" />
          </mxGeometry>
        </mxCell>
        <mxCell id="6JviFvfy_6Wq0vs0kvGb-129" style="edgeStyle=orthogonalEdgeStyle;rounded=0;orthogonalLoop=1;jettySize=auto;html=1;exitX=0.5;exitY=1;exitDx=0;exitDy=0;entryX=1;entryY=0.5;entryDx=0;entryDy=0;" edge="1" parent="1" source="6JviFvfy_6Wq0vs0kvGb-125" target="6JviFvfy_6Wq0vs0kvGb-105">
          <mxGeometry relative="1" as="geometry" />
        </mxCell>
        <mxCell id="6JviFvfy_6Wq0vs0kvGb-125" value="Заказ доставлен" style="swimlane;" vertex="1" parent="1">
          <mxGeometry x="940" y="660" width="360" height="70" as="geometry" />
        </mxCell>
        <mxCell id="6JviFvfy_6Wq0vs0kvGb-126" style="edgeStyle=orthogonalEdgeStyle;rounded=0;orthogonalLoop=1;jettySize=auto;html=1;exitX=0;exitY=0.5;exitDx=0;exitDy=0;entryX=0.5;entryY=0;entryDx=0;entryDy=0;" edge="1" parent="1" source="6JviFvfy_6Wq0vs0kvGb-121" target="6JviFvfy_6Wq0vs0kvGb-125">
          <mxGeometry relative="1" as="geometry" />
        </mxCell>
        <mxCell id="6JviFvfy_6Wq0vs0kvGb-127" value="&lt;br&gt;&lt;div&gt;Условие: Клиент принял заказ.&lt;br&gt;&lt;/div&gt;" style="shape=note2;boundedLbl=1;whiteSpace=wrap;html=1;size=25;verticalAlign=top;align=center;" vertex="1" parent="1">
          <mxGeometry x="1200" y="565" width="160" height="80" as="geometry" />
        </mxCell>
        <mxCell id="6JviFvfy_6Wq0vs0kvGb-128" value="" style="endArrow=none;dashed=1;html=1;rounded=0;exitX=0;exitY=0.063;exitDx=0;exitDy=0;exitPerimeter=0;" edge="1" parent="1" source="6JviFvfy_6Wq0vs0kvGb-127">
          <mxGeometry width="50" height="50" relative="1" as="geometry">
            <mxPoint x="1190" y="565" as="sourcePoint" />
            <mxPoint x="1120" y="500" as="targetPoint" />
          </mxGeometry>
        </mxCell>
      </root>
    </mxGraphModel>
  </diagram>
</mxfile>
